<?xml version="1.0" encoding="iso-8859-1"?>
<!-- Uploaded to: SVG Repo, www.svgrepo.com, Generator: SVG Repo Mixer Tools -->
<svg version="1.1" id="Layer_1" xmlns="http://www.w3.org/2000/svg" xmlns:xlink="http://www.w3.org/1999/xlink" 
	 viewBox="0 0 512 512" xml:space="preserve">
<circle style="fill:#E9EDF1;" cx="256" cy="256" r="256"/>
<g>
	<rect x="94.144" y="149.84" style="fill:#333333;" width="274" height="212.312"/>
	<polygon style="fill:#333333;" points="338.24,302.704 395.64,313.816 395.64,198.184 338.24,209.288 	"/>
</g>
<rect x="119.448" y="188.272" style="fill:#E9EDF1;" width="224.64" height="135.456"/>
<g>
	<rect x="325.536" y="165.464" style="fill:#FFFFFF;" width="18.568" height="12.96"/>
	<rect x="291.192" y="165.464" style="fill:#FFFFFF;" width="18.568" height="12.96"/>
	<rect x="256.8" y="165.464" style="fill:#FFFFFF;" width="18.568" height="12.96"/>
	<rect x="222.488" y="165.464" style="fill:#FFFFFF;" width="18.568" height="12.96"/>
	<rect x="188.144" y="165.464" style="fill:#FFFFFF;" width="18.568" height="12.96"/>
	<rect x="153.792" y="165.464" style="fill:#FFFFFF;" width="18.568" height="12.96"/>
	<rect x="119.448" y="165.464" style="fill:#FFFFFF;" width="18.568" height="12.96"/>
	<rect x="325.536" y="333.584" style="fill:#FFFFFF;" width="18.568" height="12.96"/>
	<rect x="291.192" y="333.584" style="fill:#FFFFFF;" width="18.568" height="12.96"/>
	<rect x="256.8" y="333.584" style="fill:#FFFFFF;" width="18.568" height="12.96"/>
	<rect x="222.488" y="333.584" style="fill:#FFFFFF;" width="18.568" height="12.96"/>
	<rect x="188.144" y="333.584" style="fill:#FFFFFF;" width="18.568" height="12.96"/>
	<rect x="153.792" y="333.584" style="fill:#FFFFFF;" width="18.568" height="12.96"/>
	<rect x="119.448" y="333.584" style="fill:#FFFFFF;" width="18.568" height="12.96"/>
</g>
<circle style="fill:#DB2B42;" cx="235.808" cy="256" r="51.768"/>
<polygon style="fill:#FFFFFF;" points="217.92,231.496 217.92,280.504 263.816,256 "/>
<rect x="395.6" y="183.84" style="fill:#333333;" width="22.224" height="144.32"/>
</svg>